<?xml version="1.0" encoding="UTF-8"?>
<svg id="_Слой_1" data-name="Слой_1" xmlns="http://www.w3.org/2000/svg" version="1.1" viewBox="0 0 2748.5 1563.7">
  <!-- Generator: Adobe Illustrator 30.0.0, SVG Export Plug-In . SVG Version: 2.1.1 Build 123)  -->
  <path d="M360.1,1500.1S-1.4,1115.9,252.1,757.5c94.6-133.7,336.1-208.8,558-147.9,131.1,36,330,30.7,524.3-286.5,265-432.5,1364.9-235.9,1150.2,522-90.4,319.2,246.6,333.8,79.7,655.7l-2204.2-.7Z" fill="#ebf3fa"/>
  <g>
    <path d="M2317.2,730.4l-787.4,658.8-414.3-352.9c-77.5,68.3-197.3,173.7-317.8,279.4-82.3,72.3-149,130.7-203,177.9l-376.3-.4c104.3-88.8,524.5-458.1,807.6-707.6l86.5-76.3,418.8,356.8,614.7-514.3,171.2,178.6Z" fill="#d5e5fb"/>
    <polygon points="2046.3 470.8 2421.3 847 2527.3 417.3 2046.3 470.8" fill="#d5e5fb"/>
  </g>
  <g>
    <g>
      <g>
        <path d="M816.9,1263.4c-1.4-34.4-4.4-64.4-8-85.3-5.8-33.3-10.9-52.5-11-52.7-.8-2.9-11.7-14.8-36.1-14.4-24.4.4-22.1,15.9-22.1,15.9h0c0,.5,0,1,.2,1.4.2.8,22.6,81.9,21.6,186.7,0,1.5-.2,4,0,5.7,0,0,56.5,1.5,56.5,0,2-9.2,1-34.5-1-57.3Z" fill="#b7d3f3"/>
        <path d="M824,1314.5c0,1.5-.8,2.6-1.7,2.6h0c-.9,0-1.7-1.2-1.7-2.6h-48.4c0,1.5-.8,2.6-1.7,2.6h0c-1,0-1.7-1.2-1.7-2.7.3-30-1.4-58-4-82.7-6.4-61.6-18.3-102.8-18.5-103.4-.1-.4-.2-.9-.2-1.4,0,0-2.3-15.5,22.1-15.9,24.4-.4,35.3,11.5,36.1,14.4,0,.2,3,11,6.9,30.5,1.3,6.5,2.7,13.9,4.1,22.2,3.6,20.9,6.6,50.9,8,85.3,2,22.7,2.8,41.9.8,51Z" fill="#d2e3fc"/>
        <path d="M765.1,1317.1h189.8s-4.4-17.9-114.3-15.2c-77.8,1.9-75.4,15.2-75.4,15.2Z" fill="#c5dcf8"/>
        <path d="M749.7,1503.9c22-111.4,16.3-179.7,16.3-180.6,0-1.7,3.1-3.3,4.8-3.3,1.7,0,9.3-.5,10.2,1,1.2,1.9,5.6,86.1-27.2,183h-4.1Z" fill="#b7d3f3"/>
        <path d="M926.9,1503.9c-22-111.4-16.3-179.7-16.3-180.6,0-1.7-3.1-3.3-4.8-3.3-1.7,0-9.3-.5-10.2,1-1.2,1.9-5.6,86.1,27.2,183h4.1Z" fill="#b7d3f3"/>
        <path d="M962,1503.9c-22-111.4-16.3-179.7-16.3-180.6,0-1.7-3.1-3.3-4.8-3.3-1.7,0-9.3-.5-10.2,1-1.2,1.9-5.6,86.1,27.2,183h4.1Z" fill="#b7d3f3"/>
        <path d="M785.1,1503.9c22-111.4,16.3-179.7,16.3-180.6,0-1.7,3.1-3.3,4.8-3.3,1.7,0,9.3-.5,10.2,1,1.2,1.9,5.6,86.1-27.2,183h-4.1Z" fill="#b7d3f3"/>
        <path d="M765.3,1312.5h189.8c2.1,0,3.9,1.7,3.9,3.9v2.6c0,2.1-1.7,3.9-3.9,3.9h-189.8c-2.1,0-3.9-1.7-3.9-3.9v-2.6c0-2.1,1.7-3.9,3.9-3.9Z" fill="#b7d3f3"/>
        <g>
          <path d="M948.4,1151.4l63.1-13.7,3.7,9.1s-69.6,41.4-76.1,39.4c-6.5-2,9.3-34.8,9.3-34.8Z" fill="#ffb27d"/>
          <path d="M891,1436.7c-1.6,1.8-1.8,3.8-1,6,0,0,0,0,0,0,1.4,4,6.2,8.5,11.8,12.9.7.6,1.3,1.1,1.9,1.6.1.1.3.3.4.4.1,0,.2.2.3.3,5.2,4.8,3.2,5.9,12.5,15.5,10.6,11,17.9,11.2,20,10.2,1.8-.9-1.8-6.7-5.8-13.3-.2-.3-.4-.6-.6-1-.5-.9-1-1.8-1.6-2.6-4.6-7.9-3.4-11.6-2.3-23.4.9-9.6,14.9-53.5,14.9-53.5l-20.3-3.5s-6.1,34.9-12.9,40.3c-3.6,2.9-7.6,2.9-11.1,5-.2.1-.5.3-.7.5-2,1.3-4,2.7-5.6,4.5Z" fill="#ffb27d"/>
          <path d="M891,1436.7c-1.6,1.8-1.8,3.8-1,6,0,0,0,0,0,0,1.8,4,6.4,8.4,11.8,12.9.7.6,1.3,1.1,1.9,1.6.1.1.3.3.4.4.1,0,.2.2.3.3,5.2,4.8,3.2,5.9,12.5,15.5,10.6,11,17.9,11.2,20,10.2,1.8-.9-1.8-6.7-5.8-13.3-2.1-.8-11.6-4.6-18.9-13.9-6.4-8.1-10.6-18.6-15-24.7-.2.1-.5.3-.7.5-2,1.3-4,2.7-5.6,4.5Z" fill="#1c468a"/>
          <path d="M1054.8,1424c1.3,6.3,10.2,5.2,20.2,2.8,10-2.4,7.6.5,21.8-1.1,14.2-1.6,18.5-6.9,18.9-9,.4-1.9-6.6-2.5-14.2-3.4-.9-.1-1.9-.2-2.9-.3-8.5-1.1-14.7-6.6-22.5-11.1-7.3-4.3-18.2-21.7-18.2-21.7l-19.5,1.5s10.2,15.5,14.2,22.3c2.3,4,2.2,9.2,1.9,13.3-.2,2.2-.3,4.5.2,6.7Z" fill="#ffb27d"/>
          <path d="M1075,1426.8c10-2.4,7.6.5,21.8-1.1,14.2-1.6,18.5-6.9,18.9-9,.4-1.9-6.6-2.5-14.2-3.4h0c0,.1-8.5,6.2-20.4,6.5-9.6.2-19.9-2.5-26.5-2.4-.2,2.2-.3,4.5.2,6.7,1.3,6.3,10.2,5.2,20.2,2.8Z" fill="#1c468a"/>
          <path d="M1011.4,1137.8s4.6-11.4,9.8-11.8c5.1-.5,21.4-3,22.5-.7,1.2,2.3,0,10.7-3.5,13.7-3.5,3-25.1,7.9-25.1,7.9l-3.7-9.1Z" fill="#ffb27d"/>
          <path d="M980.1,1299.4l-42,113s-6.5.6-12.6-1.2c-5.7-1.6-12.2-5.9-12.2-5.9,0,0,10.4-108.5,29.5-131.1,19.1-22.6,37.3,25.2,37.3,25.2Z" fill="#163560"/>
          <path d="M814,1253.7s120.7-40.8,147.6-32.1c26.9,8.7,107.7,169.5,107.7,169.5,0,0-1.8,2.4-6.8,4.3-4.6,1.7-15.8,1.6-15.8,1.6,0,0-72.9-62.5-81.6-80.8-8.7-18.2-12.2-35.6-20.8-33.9-8.7,1.7-112,42.5-135.5,18.2-23.4-24.3-17.3-55.9-17.3-55.9l22.5,9Z" fill="#1c468a"/>
          <path d="M882.8,965.9c-5.2-3-11.5-3.3-15.8-3,1.1-1.2,3.3-1.6,3.3-1.6-2.7-.4-8.8,2.3-8.8,2.3-37.7-14.5-43.6,41-42.9,53.9.8,12.9.9,27.8-17.9,39.3-37,22.8-5.8,62.5-5.8,62.5.3.2,17.2,28.9,17.2,28.9-1-10.4,47.2-65.5,72.3-81.9,6.1-9,8.3-24.9,8.4-26.1-1.1,12.6-3.2,19.7-5.1,23.6,21.3-19.6,8.9-90.1-4.9-97.9Z" fill="#b5453c"/>
          <path d="M882.9,1067.1c.1,0-12.1,6.4-21.3,3.9-8.7-2.4-14.3-13.6-14.2-13.6,3.7-.7,4.7-5.8,4.6-27.4l1.7.3,27.9,5.5s-.6,8.8-.7,17c0,6.9.4,13.5,2,14.3Z" fill="#ffb27d"/>
          <path d="M881.6,1035.8s-.6,8.8-.7,17c-15.6-.4-23.9-14.7-27.2-22.6l27.9,5.5Z" fill="#ed975d"/>
          <path d="M850.8,1027.3s-8.2-12.9-10.1-24c-1.4-7.9,2.6-37.1,32-32.9,0,0,8.5.8,16.6,6.3,6.4,4.3,15.6,13.6,5.3,39.1l-2.7,8.6-41,2.9Z" fill="#b5453c"/>
          <path d="M886.8,1043.7s-36.9.6-36.9-22.4c0-23-4.8-38.4,18.8-39.8,23.6-1.4,28.2,7.4,30,15.1,1.9,7.7-2.3,46.3-11.9,47.1Z" fill="#ffb27d"/>
          <path d="M885.4,980.9s-10.1,27-25.6,31c-15.5,4-22.2-.2-22.2-.2,0,0,11.9-9.5,14.4-26,0,0,25.9-17.7,33.5-4.8Z" fill="#b5453c"/>
          <path d="M882.9,983.1s7.5,6,9.4,11.9,2.7,17.9,6.2,17.5c0,0,7.6-18.3-.9-28.7-9.1-11-14.6-.7-14.6-.7Z" fill="#b5453c"/>
          <path d="M800.7,1166.5c-3.6-15.3,8.7-44.9,21.7-69.4,11.7-22.2,23.9-40.3,25-39.6,30.9,18.4,33.7,3.1,33.7,3.1h0s28.1,3.7,36.1,17.4c9.9,17,20.5,64.5,31.1,73.5-1.6,5-.9,7.6.8,13.8.4,1.3.8,2.6,1.2,3.8,1.6,4.3,3.6,7.9,5.3,10.9-5.4,3.3-15.8,9.5-23.4,5-11.7-6.8-20.8-27.7-25.9-35.9,0,0,0,0,0,0-11.1,63.1,4,77.5-3.7,84.1-8.1,7-19.7-3.3-45.2,7.7-16.7,7.2-39.9,17.7-55.5,19.5-8.2,1-14.3-.5-16.3-6-5.8-16.1,22-58.7,15.1-87.8Z" fill="#1c468a"/>
          <path d="M878.6,1029.7s.7,2.9,8,2.5c0,0,6.1-.4,5.9-3.6,0,0-5.9-2.3-13.9,1.1Z" fill="#fff"/>
          <path d="M785.7,1254.3c2,5.5,8.1,7,16.3,6,10.8-4.7,57.5-22.8,56.9-35-.8-18.1-9-18.7-3.2-41.1,4.6-18-38.5-51.4-45.3-58.7-12.9,24.5-13.3,25.7-9.6,41,6.9,29.1-20.8,71.8-15.1,87.8Z" fill="#163560"/>
          <path d="M780.4,1188.9c8.3-11.6,16.9-17.8,22.6-20.9-1.3-3.4,34.8-47.6,34.8-54.5s9.6-56.1,9.6-56.1c0,0-30.1,1.9-40.5,16.4-13,18.2-40.1,88.1-26.5,115.1Z" fill="#1c468a"/>
          <path d="M803,1168l60.1,15.7-5.6,10.1s-73.2-.5-77.1-5c-3.9-4.5,22.6-20.9,22.6-20.9Z" fill="#ffb27d"/>
          <path d="M906.3,1149c5.1,8.3,14.2,29.1,25.9,35.9,7.7,4.5,18.1-1.7,23.4-5-1.7-3.1-3.7-6.6-5.3-10.9-4.3,1-9.5,2.2-12.9,3.3-6.6,2-31.1-23.3-31.1-23.3Z" fill="#163560"/>
          <path d="M863.1,1183.7s18.9-5.3,23.4-4.1c4.5,1.2,19.9,11.5,17.7,14.2-2.2,2.8-15.7-1.7-22-.8s-11.1,3.9-15.6,3.3c-4.5-.7-9.2-2.4-9.2-2.4l5.6-10.1Z" fill="#ffb27d"/>
          <path d="M863.1,1183.7s9.2-4.7,11.9-7.4c.3-.3.9-.3,1.1.1.7,1.1,1.4,3.3-1.9,5.4-4.7,3.1-11.1,1.9-11.1,1.9Z" fill="#ffb27d"/>
        </g>
      </g>
      <g>
        <path d="M950.4,1210.3h-88.1c0-3.9,3.1-7,7-7h81.1v7Z" fill="#ed7d2b"/>
        <polygon points="950.1 1114.4 1086.3 1114.4 1053.6 1210.3 916.5 1210.3 950.1 1114.4" fill="#ed7d2b"/>
        <polygon points="1088.3 1114.4 1055.6 1210.3 918.6 1210.3 952.1 1114.4 1088.3 1114.4" fill="#f99746"/>
        <path d="M1014.9,1161.4c-.8,3.7-4.5,6.6-8.2,6.6s-6-3-5.1-6.6c.8-3.7,4.5-6.6,8.2-6.6s6,3,5.1,6.6Z" fill="#f9ddbf"/>
        <path d="M1088.3,1114.4l-32.7,95.9h-90.8c60.1-20.5,76.1-83.1,78.8-95.9h44.6Z" fill="#ed893e"/>
      </g>
    </g>
    <g>
      <g>
        <path d="M692.9,1503.9c1.7,0,3.2-1.2,3.5-2.9l17.1-97,24.6-139.5,6.9-39-17.5-.5-3,22.6-21.4,159.1-12.7,94.3c-.2,1.5,1,2.8,2.5,2.8Z" fill="#95c0f4"/>
        <path d="M724.4,1247.7c11.4,5,13.7,16.9,13.7,16.9l6.9-39-17.5-.5-3,22.6Z" fill="#78acea"/>
      </g>
      <g>
        <path d="M1128.8,1503.9c-1.7,0-3.2-1.2-3.5-2.9l-17.1-97-24.6-139.5-6.9-39,17.5-.5,3,22.6,21.4,159.1,12.7,94.3c.2,1.5-1,2.8-2.5,2.8Z" fill="#95c0f4"/>
        <path d="M1097.3,1247.7c-11.4,5-13.7,16.9-13.7,16.9l-6.9-39,17.5-.5,3,22.6Z" fill="#78acea"/>
      </g>
      <path d="M681.2,1210.3h448.8c5.9,0,10.7,4.8,10.7,10.7v9.2c0,5.9-4.8,10.7-10.7,10.7h-448.8c-5.9,0-10.7-4.8-10.7-10.7v-9.2c0-5.9,4.8-10.7,10.7-10.7Z" transform="translate(1811.2 2451.2) rotate(180)" fill="#78acea"/>
    </g>
  </g>
  <path d="M57.4,1495.9h2638.9c1.7,0,3,1.3,3,3v1c0,1.7-1.3,3-3,3H57.4c-1.7,0-3-1.3-3-3v-1c0-1.7,1.3-3,3-3Z" fill="#2e3552"/>
  <g>
    <path d="M1796,1194s-11.6,14.4-8,16.4c3.6,2,13.3,5.7,15.5,3.3s3-19.3,3-19.3l-10.5-.4Z" fill="#ffb27d"/>
    <path d="M1796.5,1194.2s-4.8,1.7-6.6,4.1c-1.9,2.5-6,6.3-5,7.3,1,1,7-3.6,7-3.6l4.7-7.8Z" fill="#ffb27d"/>
    <path d="M1840,1001.1s-13.1,122.2-14.3,125.6c-.3.8-1.3,4.6-2.7,10.2-2.1,7.9-5,19.4-7.8,30.2-4.2,16.4-8,31.5-8,31.5l-11.4-3.8s-.6-59.4,2.3-73c2.9-13.7,12.3-97.7,17-109,4.7-11.3,24.8-11.8,24.8-11.8Z" fill="#aec3ff"/>
    <g>
      <path d="M1812.8,1294.1l-71.6-18.8c-9.3-2.4-14.9-12.1-12.5-21.4l8.1-31c2.4-9.3,12.1-14.9,21.4-12.5l71.6,18.8c9.3,2.4,14.9,12.1,12.5,21.4l-8.1,31c-2.4,9.3-12.1,14.9-21.4,12.5Z" fill="#a02e2e"/>
      <path d="M1746.3,1225.4l-8.2,31.4c-1.6,6.1.2,12.3,4.3,16.5,1.3,1.4,2.9,2.6,4.7,3.5t0,0h0c1.1.6,2.3,1,3.6,1.4l71.4,18.7c9.3,2.5,19-3.2,21.5-12.5l8.2-31.4c2.4-9.4-3.2-19-12.5-21.5l-24.6-6.5,1.8-6.7c.8-3.1-1-6.3-4.1-7.1l-2.7-.7-15-3.9-3.7-1c-1.5-.4-3.1-.2-4.4.6-1.3.8-2.3,2-2.7,3.5l-1.8,6.7-14.2-3.7c-.6-.1-1.1-.3-1.7-.4,0,0,0,0,0,0h0c-5.7-.9-11.4,1.1-15.3,5.1h0c-2.1,2.1-3.7,4.8-4.5,7.8ZM1811.1,1224.2l-25.6-6.7,1.8-6.7c.3-1.2,1.5-1.8,2.6-1.5l6.4,1.7,11.8,3.1,3.2.8c.2,0,.4.1.6.3.8.5,1.2,1.4.9,2.4l-1.8,6.7Z" fill="#bc3f3f"/>
    </g>
    <path d="M1802.8,1214s3.2-5.4,2-7.2c-1.2-1.9-5.5,5.5-5.5,5.5,0,0,2.9-6.4,1.8-7.4s-5.6,6.3-5.6,6.3c0,0,2.8-6.2,1.8-6.4-1-.2-4.3,5.2-4.3,5.2,0,0,1.7-4.6.2-4.4-1.6.2-5,4.4-5,4.4l14.6,4Z" fill="#ffb27d"/>
    <path d="M1823,1137c-2.1,7.9-5,19.4-7.8,30.2-1.8-5-4.1-13-5.5-24-2.6-20.2,5.5-63.3,5.5-63.3l7.8,57Z" fill="#9db0f4"/>
    <path d="M1973.2,1188.9s12.7,10.3,14.3,13.5c1.6,3.2,5.5,15.1,5.3,19-.2,3.8-9.7-8.8-12.5-9.8-2.8-1,2.9,5.2,2.3,6.5-.6,1.3-6.6-3-8.9-4.4-2.3-1.4-3.9-11.1-7.2-16.3-3.4-5.2,6.8-8.5,6.8-8.5Z" fill="#ffb27d"/>
    <path d="M1806.7,1497.6h63.3c4.5-3.1-1.2-33.1-1.2-33.1,0,0-17.3-6.6-20.2,6.8-3,13.3-22,17.5-32,19.2-6.9,1.1-9.1,4.9-9.7,7.2Z" fill="#233862"/>
    <path d="M1900.5,1497.6h63.3c4.5-3.1-1.2-33.1-1.2-33.1,0,0-17.3-6.6-20.2,6.8-3,13.3-22,17.5-32,19.2-6.9,1.1-9.1,4.9-9.7,7.2Z" fill="#233862"/>
    <path d="M1823.7,1191s2.8,35.5,6.2,78.1c4.5,57.9,16.8,201.6,16.8,201.6,0,0,8,6.9,25.8,3.1,0,0,15.1-49.6,19.7-106.1,0-.9.1-1.9.2-2.8,4.2-57.6,10.8-178.8,10.8-178.8l-79.5,4.9Z" fill="#2b478b"/>
    <path d="M1822.7,1178.7s3.8,47.7,7.2,90.4l62.3,98.6c0-.9.1-1.9.2-2.8,4.2-57.6,10.8-178.8,10.8-178.8l-80.4-7.3Z" fill="#233862"/>
    <path d="M1840.9,1178.7s45.2,112.5,59.6,155.1c10.3,30.4,39.3,136.9,39.3,136.9,0,0,12.6,3.8,23.2-3.6,0,0,10.8-108.8-11-139.5-11.6-16.3-2.9-169.2-49.8-170.5-46.9-1.3-61.4,21.7-61.4,21.7Z" fill="#2b478b"/>
    <path d="M1927,1188.9c-18.8,10.6-99.5,10.4-103.3,2-8.4-18.6-10.4-113.3-6.5-142.3,0,0,2-44.6,6.5-42.7,29.8-13.7,78.1-1.3,78.1-1.3,13,3.8,11.9,33.6,15.5,75.3.5,5.4,1,11,1.6,16.8,2.6,25.8,6.3,55.4,12,86.6.4,2.1-1.1,3.9-3.9,5.5Z" fill="#aec3ff"/>
    <path d="M1879.4,999.8c-.5,8-10.9,7.1-23.4,4.2-12.5-2.8-8-10.2-8-10.2,0,0,.2-5.7,1-12.5.3-2.5.7-5.1,1.1-7.6.2-1.2.5-2.5.7-3.7,1.6-7,25-.2,24.8,1.6-.5,5.1,3.2,21.9,3.7,28.1Z" fill="#ffb27d"/>
    <polygon points="1852.6 1013.7 1851.6 1002.7 1865.5 1005.3 1860.1 1015.1 1852.6 1013.7" fill="#233862"/>
    <path d="M1848.3,988.5l-8.3,12.6s0,7.7,7.2,13.4l11.3-10.5s-7.3-2.8-10.2-15.4Z" fill="#9db0f4"/>
    <path d="M1858.6,1004s2.3,8.4,6.9,12.3c0,0,17.7-4.8,21.9-13.8l-9.2-11.9s-.4,9-19.6,13.4Z" fill="#9db0f4"/>
    <path d="M1875.8,975.6s-11.3,7.5-26.8,5.7c.3-2.5.7-5.1,1.1-7.6,3.1-.7,5.7-1.2,5.7-1.2l20.1,3.2Z" fill="#e2915a"/>
    <path d="M1883,967.1c-5.5,15.1-25.6,11.3-34.1,8.8-2.4-.7-3.9-1.2-3.9-1.2-2.6-1.2-3.5-5.8-3.2-11.6.5-11.5,5-27.8,7.6-31.7,3.9-5.9,10.5-11.9,29.9-3.5,19.5,8.4,10.7,19.9,3.7,39.3Z" fill="#ffb27d"/>
    <path d="M1898,959.3c-6.1,5-19.3,14.3-19.3,14.3,0,0,1.5-1.7,3.3-6.7.2-.6.3-1.4.2-2.3,0-2.5.5-4.9,1.8-7,.8-1.3,1.1-2.7,0-3.6-1.7-1.6-4.5-.1-6.4,1.1-1.2.8-2.8.9-4.1.1,0,0,0,0,0,0-5.2-3.3.5-9.1-3.7-13.9-4.3-4.8-22.7-5.5-22-8.5-6.3-3.6-2.3-16.7-2.2-17.4,0,0,9,.8,20.3-2,9.2-2.3,19.3,3.6,22.5,6,0-.6,0-1.4-.5-2.2,0,0,1.4,1.4,1.4,3,.1.1.2.2.2.3,0,0,1.8,0,2.9.7,0,0-.8-.2-1.2.2,0,0,0,0-.2.1,12.3,8.7,12.1,33.7,7,37.9Z" fill="#233862"/>
    <path d="M1854,964.9s-1,1.9-5.9.3c0,0-4.2-1.3-3.5-3.5,0,0,4.5-.6,9.4,3.2Z" fill="#fff"/>
    <path d="M1852.6,1013.7s-11.1,139.7-10.9,151.3c.2,11.6,12.2,23.9,12.2,23.9,0,0,9.6-10.5,11.5-21.7,1.9-11.1-5.3-152.2-5.3-152.2l-7.5-1.4Z" fill="#2a4e96"/>
    <path d="M1901.7,1004.8s17.8,4.3,32,31.4c14.1,27.1,25.2,81.8,32,96.2,6.7,14.4,11.4,59.9,11.4,59.9l-10.7,5.2s-25.7-46.6-29.6-61.8c-2.1-8.3-33.5-74.4-33.5-74.4l-1.5-56.4Z" fill="#aec3ff"/>
    <path d="M1927,1188.9h0c-33.6-4.8-24-116-21.3-116.5,2.6-.4,12.3,19.9,12.3,19.9l.9,4.5c2.6,25.8,6.3,55.4,12,86.6.4,2.1-1.1,3.9-3.9,5.5Z" fill="#9db0f4"/>
  </g>
  <g>
    <g>
      <path d="M2346.1,1431.9s14,12.8,11.3,21.8c-2.7,9.1-15.4,15.1-17.1,26.2-1.7,11.1-8.5,17.1-14.7,17.1h-29.3s-4.5-7.8,6.4-10.2c10.9-2.4,15-15.4,14.4-27.5-.7-12.1,1-28.2,1-28.2l23.2-5.4,4.8,6Z" fill="#233862"/>
      <path d="M2174.5,1464.9s2.5,29.1-3.6,32.1l-78.6-.2s0-9.1,12.6-11.1c12.6-2,34.8-9.4,38.6-25.9,3.8-16.5,31,5,31,5Z" fill="#233862"/>
      <path d="M2108.2,1054.5s4.1,50.9,9,112.1c6.6,83.2,14.6,185.3,15.4,204.7,1.4,33.6,6.8,87.4,6.8,87.4,0,0,13,12.8,38.9,7.4,0,0,23.1-76.7,29.7-157.9.1-1.3.2-2.7.3-4,6.1-82.6,15.7-256.7,15.7-256.7l-115.8,7.1Z" fill="#2a4e96"/>
      <path d="M2108.2,1054.5s4.1,50.9,9,112.1l90.8,141.5c.1-1.3.2-2.7.3-4,6.1-82.6,15.7-256.7,15.7-256.7l-115.8,7.1Z" fill="#233862"/>
      <path d="M2127.1,1060.5s74.7,184.4,123.9,271.1c49.1,86.7,64.5,110.9,64.5,110.9,0,0,28.1-11.1,30.7-18.6,0,0-18.8-167.3-51.7-208.1-18.6-23-34.6-74.2-33.8-98.4,1.4-41.7-14.3-90.1-14.3-90.1l-119.2,33.3Z" fill="#2a4e96"/>
    </g>
    <path d="M2067.4,1063.2s-14,18.9-15,23.9c-1,5-2.2,23-.6,28.3,1.7,5.3,10.4-15.7,13.9-18.1,3.5-2.4-2.2,8.3-.8,9.9,1.4,1.6,8.1-6.6,10.7-9.4,2.6-2.8,1.4-16.8,4.2-25.3,2.8-8.5-12.5-9.3-12.5-9.3Z" fill="#ffb27d"/>
    <path d="M2129,788.7s-18.9,175.5-20.5,180.5c-.4,1.1-1.8,6.6-3.9,14.6-3,11.4-7.2,27.8-11.1,43.4-6,23.6-12.5,43.9-12.5,43.9,0,0-2.8,1.8-9.7,1.3-4.7-.4-7.2-4.4-7.2-4.4,0,0,.7-86.2,4.9-105.8,4.2-19.7,17.7-140.3,24.5-156.6,6.8-16.2,35.6-17,35.6-17Z" fill="#fff"/>
    <path d="M2104.5,983.8c-3,11.4-7.2,27.8-11.1,43.4-2.6-7.2-5.8-18.7-7.9-34.4-3.8-29,7.9-90.9,7.9-90.9l11.2,81.9Z" fill="#dceaff"/>
    <path d="M2253.8,1058.5c-27.1,15.3-143,14.9-148.4,2.9-12-26.8-15-162.7-9.3-204.5,0,0,2.9-64.1,9.3-61.3,42.8-19.7,112.1-1.8,112.1-1.8,18.7,5.5,17.1,48.2,22.3,108.2.7,7.7,1.4,15.8,2.2,24.1,3.7,37,9.1,79.6,17.2,124.5.5,3-1.5,5.6-5.5,7.8Z" fill="#fff"/>
    <path d="M2185.5,786.7c-.7,11.5-15.7,10.2-33.7,6.1-18-4.1-11.5-14.7-11.5-14.7,0,0,.3-8.1,1.4-17.9.4-3.5.9-7.3,1.6-11,.3-1.8.7-3.6,1.1-5.3,2.3-10.1,35.9-.4,35.7,2.4-.7,7.3,4.6,31.4,5.4,40.4Z" fill="#ffb27d"/>
    <polygon points="2147 806.7 2145.6 790.9 2165.5 794.6 2157.8 808.8 2147 806.7" fill="#233862"/>
    <path d="M2140.8,770.6l-11.9,18.1s0,11.1,10.3,19.2l16.3-15.1s-10.5-4-14.7-22.1Z" fill="#dceaff"/>
    <path d="M2155.5,792.7s3.4,12.1,9.9,17.6c0,0,25.4-6.8,31.4-19.8l-13.2-17.1s-.6,12.9-28.1,19.3Z" fill="#dceaff"/>
    <path d="M2180.4,751.9s-16.2,10.7-38.6,8.2c.4-3.5.9-7.3,1.6-11,4.4-1.1,8.1-1.7,8.1-1.7l28.8,4.5Z" fill="#e2915a"/>
    <path d="M2190.6,739.7c-7.9,21.7-36.7,16.2-49,12.7-3.5-1-5.6-1.8-5.6-1.8-3.8-1.7-5-8.3-4.6-16.7.7-16.5,7.2-39.9,10.9-45.5,5.6-8.5,15.1-17.1,43-5.1,28,12,15.4,28.6,5.3,56.4Z" fill="#ffb27d"/>
    <path d="M2212.2,728.6c-8.8,7.2-27.8,20.5-27.8,20.5,0,0,2.1-2.5,4.7-9.7.3-.8.4-2,.3-3.3-.1-3.5.7-7,2.6-10,1.2-1.9,1.6-3.8.1-5.2-2.4-2.3-6.5-.2-9.2,1.7-1.8,1.2-4.1,1.3-5.9.2,0,0,0,0,0,0-7.5-4.7.8-13-5.3-20-6.1-6.9-32.7-7.9-31.6-12.2-9.1-5.1-3.3-24-3.2-25,0,0,13,1.1,29.2-2.9,13.2-3.3,27.7,5.2,32.3,8.6,0-.8-.1-2-.7-3.2,0,0,2,2,2,4.3.2.2.3.3.2.4,0,0,2.6,0,4.2,1,0,0-1.1-.4-1.7.3,0,0-.1.1-.2.2,17.6,12.5,17.4,48.4,10,54.4Z" fill="#bc3f3f"/>
    <path d="M2148.9,736.6s-1.4,2.7-8.5.5c0,0-6-1.9-5-5.1,0,0,6.5-.8,13.5,4.6Z" fill="#fff"/>
    <path d="M2147,806.7s-15.9,200.7-15.7,217.4c.2,16.7,17.6,34.4,17.6,34.4,0,0,13.8-15.2,16.5-31.1,2.7-16-7.7-218.6-7.7-218.6l-10.8-2.1Z" fill="#2a4e96"/>
    <path d="M2253.8,1058.5h0c-48.3-6.9-34.4-166.7-30.6-167.3,3.8-.6,17.7,28.6,17.7,28.6l1.3,6.5c3.7,37,9.1,79.6,17.2,124.5.5,3-1.5,5.6-5.5,7.8Z" fill="#dceaff"/>
    <g>
      <path d="M2395.7,1177.5l-102.1,29.7c-13.3,3.9-27.3-3.8-31.2-17.1l-12.9-44.2c-3.9-13.3,3.8-27.3,17.1-31.2l102.1-29.7c13.3-3.9,27.3,3.8,31.2,17.1l12.9,44.2c3.9,13.3-3.8,27.3-17.1,31.2Z" fill="#a02e2e"/>
      <path d="M2263,1141.9l13,44.7c2.5,8.7,9.3,15,17.5,17.2,2.7.8,5.5,1.1,8.4.9t0,0h0c1.8-.1,3.6-.4,5.4-.9l101.9-29.7c13.3-3.9,21.1-18,17.2-31.3l-13-44.7c-3.9-13.3-18-21.1-31.3-17.2l-35.1,10.2-2.8-9.5c-1.3-4.4-5.9-7-10.3-5.7l-3.8,1.1-21.3,6.2-5.3,1.5c-2.1.6-3.9,2-5,4-1.1,2-1.3,4.2-.7,6.3l2.8,9.5-20.3,5.9c-.8.2-1.6.5-2.3.8,0,0,0,0,0,0h0c-7.7,3.1-13.2,9.8-15.1,17.5h0c-1,4.1-1,8.6.3,12.9ZM2342,1092.6l-36.5,10.6-2.8-9.5c-.5-1.6.5-3.4,2.1-3.9l9.2-2.7,16.8-4.9,4.5-1.3c.3,0,.6-.1.9-.1,1.3,0,2.5.9,2.9,2.2l2.8,9.5Z" fill="#bc3f3f"/>
    </g>
    <path d="M2311.4,1064s-3.2,26.5,2.8,26.1c5.9-.4,20.5-3.2,21.4-7.8,1-4.6-11.1-25.8-11.1-25.8l-13.1,7.5Z" fill="#ffb27d"/>
    <path d="M2312.2,1064s-4.5,5.6-4.9,10.1c-.4,4.4-2.6,12.2-.5,12.7,2,.5,5.8-9.7,5.8-9.7l-.3-13.1Z" fill="#ffb27d"/>
    <path d="M2217.6,793.9s25.6,6.1,45.9,45.1c20.3,38.9,36.3,117.5,45.9,138.2,9.7,20.7,17,82.9,17,82.9,0,0-1.5,3.1-6.7,4.2-4,.9-8.2.5-8.2.5,0,0-38.1-61-43.6-83-3-11.9-48.2-106.9-48.2-106.9l-2.2-81.1Z" fill="#fff"/>
  </g>
  <g>
    <polygon points="529.3 1471.7 525.5 1444 541.6 1430.6 546.7 1467.2 529.3 1471.7" fill="#ffb27d"/>
    <path d="M582.9,1496.4h-65.8s-1.6-10,1.9-17.6c3.3-7.3,8.4-11.8,8.9-17.4,4.2,4.3,9.3,7.1,18.8,5.8,1.2,1.9,7.5,12,11.4,14.8,4.3,3.1,23.5,2,24.8,14.4Z" fill="#233862"/>
    <path d="M569.7,1098.1c-4.3,34.6-7.8,67.2-10.7,97.6-15.3,162-12.3,261-12.3,261,0,0-1.1,2.9-10.6,3-5.4,0-10.6-1.1-10.6-1.1,0,0-34.3-105.8-31.6-166,.3-7.2,1.2-13.8,2.7-19.5,8.2-30.8-30.4-148.6,11.6-192.5,42-43.9,63.6,1.6,61.6,17.4Z" fill="#f99746"/>
    <path d="M569.7,1098.1c-4.3,34.6-7.8,67.2-10.7,97.6l-65.1,96.9c.3-7.2,1.2-13.8,2.7-19.5,8.2-30.8-30.4-148.6,11.6-192.5,42-43.9,63.6,1.6,61.6,17.4Z" fill="#ed7d2b"/>
    <path d="M621.4,768.1s-1.6-7.9-3.4-13.9c-.8-2.7,4.7-20.2,8.5-22.4,3.8-2.2,13.7,9.7,10.9,18.7-1.4,4.7-3.8,19.8-3.8,19.8l-12.3-2.2Z" fill="#ffb27d"/>
    <path d="M621.4,768.1s-2.1-4.6-3.9-5.3c-1.9-.7-3.9-8.2-5.2-11.2,0,0,1.3-1.9,3.6.6,1.4,1.5,4.6,6,4.6,6l1,10Z" fill="#ffb27d"/>
    <path d="M349.9,794.7c-.4.8-1,2.3-1.5,3.7,0-.4,0-.8,0-1.1,0-2.8-10.4-17.9-14.7-18.9-4.3-.9-10.3,13.2-5,21.1,2.7,4,9.4,17.8,9.4,17.8l11.1-5.7s.6-5,2.2-6.2c1.6-1.3,1.3-9,1.7-12.3,0,0-1.8-1.5-3.3,1.6Z" fill="#ffb27d"/>
    <path d="M419,1463.4c-.9-8.9-1.2-32.2-1.2-32.2,0,0,23.8-7.6,22.9-2.4-4.3,25.6-3.1,38.3-3.1,38.3l-9.6,5.7-9-9.5Z" fill="#ffb27d"/>
    <path d="M549.8,1096.5s-91.8,251.7-109.9,360.9c0,0-4.2,2.9-12,1.9-8.9-1.1-11.3-7.2-11.3-7.2,0,0-16.6-130.9,16.4-176.3,22.7-31.2-9.8-168.3,43-179.3,52.8-11,73.8,0,73.8,0Z" fill="#f99746"/>
    <path d="M533.5,854.3h0c0-.1,0-.2,0-.3-.5-2.2-1.1-4.4-1.8-6.6h0c-1.9-6.6-4.2-12.9-6.7-18.5-1.4-3.2-2.9-6.1-4.4-8.8-.2-.4-.5-.8-.7-1.2h0c-3.5-6-7.2-10.1-10.5-11.4-6-2.3-12.7-1.7-17.3-.7,1-1.4,3.3-2.2,3.3-2.2-2.9,0-8.9,3.8-8.9,3.8-42.3-9.5-39.8,50.4-36.9,63.9,2.9,13.6-10.7,20.2-30,34-36.7,26.5-36,54.5-36,54.5.3.1.7.3,1.1.5,1.5-3.6,4.6-10.5,7.9-12,0,.3-2.8,9.2-3.5,14.2,5.6,3.1,13.3,7.8,21.7,13.2h0c11.2,7.2,23.6,15.5,33.5,22.2-.5-2.7-.9-6.6-.2-8.8l3.2,9.8.4,1.3c6.3,4.3,11.3,7.7,13.9,9.5.3.2.5.3.7.5.7.5,1.1.8,1.1.8-.8-3.5,2.9-12.5,9.1-23.9.4-.8.9-1.6,1.3-2.4,2-3.6,4.2-7.4,6.6-11.3.9-1.4,1.7-2.8,2.7-4.3,0,0,0,0,0,0,.7-1.2,1.5-2.3,2.2-3.5h0c1.8-2.8,3.7-5.6,5.6-8.4,4.9-7.3,10.1-14.5,15.3-21.1,7.5-9.6,14.8-18,20.9-23.5.2-.4.4-.8.6-1.3,1-2.2,1.7-4.7,2.3-7.2.2-.8.3-1.5.5-2.3,1.5-8.1,1.6-16,1.5-17.9.5,7.8.3,13.6-.2,18.1-.1,1-.2,1.9-.4,2.7h0c-.3,1.9-.7,3.5-1.1,4.8,1-1.2,1.9-2.6,2.7-4.1.5-1,1-2,1.4-3.1,5-12.6,3.6-31.5-.7-49.2Z" fill="#163560"/>
    <path d="M525.5,915c.1,0-11.8,8.7-22,7.5-9.6-1.1-17.3-12.2-17.2-12.2,3.8-1.4,4.1-6.9.6-29.8h1.8c0,0,30.4,1.5,30.4,1.5,0,0,.7,9.4,2,18.2,1.1,7.4,2.6,14.3,4.4,14.8Z" fill="#ffb27d"/>
    <path d="M519.2,882s.7,9.4,2,18.2c-16.6,2-27.6-11.8-32.4-19.6l30.4,1.5Z" fill="#ed975d"/>
    <path d="M485.2,877.7s-10.7-12.4-14.5-23.8c-2.7-8.1-3.1-39.8,28.7-40,0,0,9.2-.5,18.5,4,7.4,3.6,18.7,12,11.8,40.7l-1.5,9.6-43.1,9.5Z" fill="#163560"/>
    <path d="M573.5,1091.7s-39.6,23.5-89.4,11.4c-.6-.1-41-6.6-41-6.6.7-1.9,5.9-33.1,6.6-34.8,8.8-22.8,25-146.4,38.4-152.5,3.4,3.7,13.3,6.3,21.7,5.6,9.7-.9,12.9-5,12.1-9.5,10.7,5.1,19,9.8,19,9.8,9.8,14.7,32.5,176.7,32.5,176.7Z" fill="#fff"/>
    <path d="M526,889.4s-39.1,6.5-42.7-17.9c-3.7-24.4-11.2-40,13.6-45.1,24.8-5.2,31,3.4,34.2,11.3,3.2,7.8,4.9,49.5-5.1,51.8Z" fill="#ffb27d"/>
    <path d="M514.6,823.1s-6.5,30.2-22.3,36.9c-15.8,6.7-23.6,3.3-23.6,3.3,0,0,11.1-11.9,11.1-29.8,0,0,24.6-22.8,34.8-10.4Z" fill="#163560"/>
    <path d="M512.3,825.9s9,5.2,11.8,11.1c2.9,5.9,5.7,18.6,9.3,17.6,0,0,5.2-20.7-5.5-30.3-11.4-10.2-15.6,1.6-15.6,1.6Z" fill="#163560"/>
    <path d="M634,768.6c-1.6-.6-3.9-1.9-7-2.2-2.7-.2-6.1.6-6.1.6,0,0-11,68.5-11.8,72.1-.8,3.6-47.3,56-59.8,55.7-11.3-.2-24.7,8.5-27.2,10.2,0,0,26.3,55.7,27.7,66.2,1.4,11.4,15.1,186.7,15.1,186.7,0,0-.8,8.2,14.4,3.8,15.2-4.4,19-8,19-8,0,0-14-138-16.9-180.9-.4-5.8-1.3-11.1-2.7-16-1.3-4.7-.3-9.8,2.6-13.8,19.3-26.4,49.7-69.3,51.4-78.4,2.5-13.4,1.4-96.1,1.4-96.1Z" fill="#2b478b"/>
    <path d="M473.8,1496.4h-65.8s-1.6-10,1.9-17.6c3.3-7.3,8.4-11.8,8.9-17.4,4.2,4.3,9.3,7.1,18.8,5.8,1.2,1.9,7.5,12,11.4,14.8,4.3,3.1,23.5,2,24.8,14.4Z" fill="#233862"/>
    <path d="M519,976.8c-2.2-13.6-30.5-68.4-30.5-68.4,0,0-17.9-5.4-29.7-1.1-11.8,4.3-72.7-30.1-74.7-33.3-2-3.2-34.6-64-34.6-64,0,0-2.7-1.6-7,.7-4.3,2.2-4.3,6.6-4.3,6.6,0,0,25.2,76.6,31.9,88.4,4,7.1,38,32,64.4,50.6,5,3.6,7.7,9.6,6.8,15.7-3.5,26.2-4.4,40.9-8.5,85.9-3.4,37.3-4.7,109.4-4.7,109.4,0,0,29.5,10.2,49.8,11.6,20.3,1.4,24.8-20.1,24.8-20.1,0,0,18.6-168,16.3-182Z" fill="#2b478b"/>
    <path d="M513.2,877.4s4.7,2.8,10.3,1.9c3.8-.6,4.7-5.1,4.7-5.1,0,0-2.7-.8-6.9,0-4.3.9-8.1,3.2-8.1,3.2Z" fill="#fff"/>
  </g>
  <g>
    <path d="M1760.8,412.5s-18.3-32.5,0-39.1c18.3-6.6,26.5-.5,27.4,6.9.9,7.4-7,36.6-7,36.6l-20.5-4.4Z" fill="#ffb27d"/>
    <path d="M1775.5,620.2c-33.3,6-64,8.8-91.6,9.4-26.3.6-49.8-.8-70.4-3.2-5.5-.6-10.9-1.3-16-2.1-54-8.2-83.8-22.7-83.8-22.7,0,0,49.3-103.2,89.1-99.2,46.7,4.7,125.9,46.6,133.8,34.8,8.9-13.2,16.3-126.9,16.3-126.9,20.7-14.2,33.1.8,33.1.8,0,0,40.5,199.9-10.5,209.1Z" fill="#f99746"/>
    <path d="M1775.5,620.2c-33.3,6-64,8.8-91.6,9.4-26.3.6-49.8-.8-70.4-3.2-12.4-39.5-21.4-79.9,3.6-55.6,44.1,42.9,158.4,49.3,158.4,49.3Z" fill="#ed7d2b"/>
    <path d="M1510,1453.4s-3.5,41,5.1,45.3l111-.2s0-12.8-17.8-15.7c-17.8-2.8-49.1-13.3-54.4-36.5-5.3-23.2-43.8,7.1-43.8,7.1Z" fill="#233862"/>
    <path d="M1591.4,956.9c-.5,26.8-1.8,54.5-4.4,79.4-12,118-16.2,260.6-17.9,288.1-3,47.7-12.4,123.9-12.4,123.9,0,0-18.7,17.7-55.1,9.3,0,0-30.2-109.8-36.9-225.4-.1-1.9-.2-3.8-.3-5.7-.8-15.3-1.6-32.8-2.4-51.6-5.6-126.2-11.6-313.7-11.6-313.7l139.3-32.7s3.2,61.6,1.8,128.5Z" fill="#2a4e96"/>
    <path d="M1591.4,956.9c-35.3,60.9-102.6,173.1-129.5,217.9-5.6-126.2-11.6-313.7-11.6-313.7l139.3-32.7s3.2,61.6,1.8,128.5Z" fill="#233862"/>
    <path d="M1238.8,839s-22.7,26.7-24.7,34c-2,7.4-5.7,34-3.7,42,1.9,8,17-22.3,22.5-25.5,5.5-3.2-4.1,12.1-2.2,14.6,1.9,2.6,12.7-8.9,16.9-12.8,4.2-3.9,3.8-24.8,8.9-37.1,5.1-12.4-17.6-15.2-17.6-15.2Z" fill="#ffb27d"/>
    <path d="M1233.5,1406.8s-19.8,18-15.9,30.8c3.9,12.8,21.7,21.3,24.1,37,2.4,15.7,12,24.2,20.7,24.2h41.3s6.4-11-9-14.3c-15.4-3.3-21.2-21.7-20.3-38.8,1-17.1-1.4-39.8-1.4-39.8l-32.8-7.6-6.7,8.5Z" fill="#233862"/>
    <path d="M1567.7,864s-130.4,278.9-199.7,401.3c-69.4,122.4-91.1,156.5-91.1,156.5,0,0-39.7-15.7-43.4-26.3,0,0,26.5-236.3,73-293.9,26.3-32.5,57.1-130.2,58.5-164.4,1.4-34.2,31.9-115.7,31.9-115.7l170.7,42.4Z" fill="#2a4e96"/>
    <path d="M1605.8,877.1s-51.8,34.7-125.2,31.4c-32.2-1.4-96.1-10.5-106.4-36.1-2.4-6-.6-13.6,3-25.4,9.4-30.4,31.4-88.4,24.8-216.9-.6-12-.3-23.2.9-33.7,6.9-63.3,43.2-100.8,78.3-113.1,85.5-29.9,114,11.5,114,11.5,0,0,37.8,29.9,43.5,92.5,11.4,125-32.8,289.8-32.8,289.8Z" fill="#f99746"/>
    <path d="M1506.1,476.2s39.2,23.9,81.8,17.1c0,0,8.4-2.1,4.3-12,2.6-8,2.3-7.3,3.8-13.2,3.7-13.6,4.9-21.5,4.9-21.5l-24.2-25.4-22.9-24.3c-6.3,58-47.7,79.2-47.7,79.2Z" fill="#ffb27d"/>
    <path d="M1550.1,418.9s13.1,35.1,45.8,49.2c3.7-13.6,6.2-27.9,6.2-27.9l-25.4-19-26.5-2.3Z" fill="#ed985f"/>
    <path d="M1627.9,445.4s-74.9,9.4-80.2-36.7c-5.3-46-18.5-75.8,29.1-83.7,47.6-7.9,58.9,8.6,64.5,23.6,5.5,14.9,5.9,93.2-13.4,96.8Z" fill="#ffb27d"/>
    <path d="M1524.1,317.5c-.6-.8-2.2-1.5-5.6-1.8,0,0,2.8-1.6,6.5-1.6.9-4.8,3.8-13.2,12.2-15,0,0-4.6,2.2-5.3,7.3,10-9.5,30.9-15.9,87.7-9.3,75,8.8,48.4,56,38.4,61.4-10,5.4-33.9-11.3-52-10.5-18.2.8-22.6,26.8-28.9,30.2-6.3,3.4-3.6-2.9-11.8-7-8.2-4.1-9.5,9.7-7.4,18.7,2.1,9.1-9.8,20.5-9.8,20.5l-11.1-12.9c-11.1-12.9-20-66-14.3-77.1.5-1,1-2,1.5-3Z" fill="#2c3a64"/>
    <g>
      <polygon points="1752.9 390.9 1625.7 392.1 1624.8 372.9 1751.6 363.1 1752.9 390.9" fill="#2a4e96"/>
      <polygon points="1848.9 394.1 1710.4 396.1 1708.8 361.3 1846.9 350.7 1848.9 394.1" fill="#2a4e96"/>
      <polygon points="1942.2 396.9 1825.5 397 1823.3 350 1939.6 339.5 1942.2 396.9" fill="#233862"/>
      <path d="M1943.9,404.8h0c3.6-.2,6.4-3.2,6.2-6.8l-2.7-60.3c-.2-3.6-3.2-6.4-6.8-6.2h0c-3.6.2-6.4,3.2-6.2,6.8l2.7,60.3c.2,3.6,3.2,6.4,6.8,6.2Z" fill="#233862"/>
      <path d="M1625.3,396.2h0c-3.2.1-5.9-2.3-6.1-5.5l-.7-15.7c-.1-3.2,2.3-5.9,5.5-6.1h0c3.2-.1,5.9,2.3,6.1,5.5l.7,15.7c.1,3.2-2.3,5.9-5.5,6.1Z" fill="#2a4e96"/>
    </g>
    <path d="M1377.1,847.1c9.4-30.4,31.4-88.4,24.8-216.9-.6-12-.3-23.2.9-33.7h0c28.1-2.4,71.2,28,71.2,28,0,0-26.5,161.5-96.8,222.7Z" fill="#ed7d2b"/>
    <path d="M1506.1,476.2s-72.2,12.4-109.8,58.4c-37.6,46-98.2,110.7-112.5,133.4-14.3,22.7-54.1,177.1-54.1,177.1,0,0,2.6,5,13.6,7.9,10.5,2.8,18.1-1.5,18.1-1.5,0,0,52.7-90.1,72.5-135.1,8.2-18.7,150.6-92.8,204.2-85.1,21,3-31.9-155-31.9-155Z" fill="#f99746"/>
    <path d="M1752.1,357.6s15.5,9.5,24.8,5.5c9.3-4,8.5-7.7,8.5-7.7,0,0-28-7.8-33.3,2.2Z" fill="#ffb27d"/>
    <path d="M1576.1,526.5s-31.7,200-256.4,258.2l-24.5,48.3,43,7.3s255.8-74.1,252.4-317.3l-14.5,3.5Z" fill="#bc3f3f"/>
    <polygon points="1571.2 494.6 1560.8 495.6 1560.8 510.6 1576.1 526.5 1590.6 523 1590.6 502.1 1580.2 494.6 1571.2 494.6" fill="#a02e2e"/>
    <path d="M1530.5,454.8s-10,2.3-33,21.3c0,0,22.8,48.5,71,54.3,0,0-.8-22.5,2.7-35.8,0,0-38.2-13.7-40.7-39.8Z" fill="#ed7d2b"/>
    <path d="M1571.2,494.6s23.5,12.5,25.2,31.9c0,0,9-14.2,6.4-24.1-2.6-9.9-10.7-21.2-10.7-21.2,0,0,.8,11.9-21,13.3Z" fill="#ed7d2b"/>
  </g>
</svg>